# xmcd CD database file
#
# Track frame offsets:
#	182
#	34962
#	75945
#	111375
#	146270
#	175707
#
# Disc length: 2917 seconds
#
# Revision: 0
# Processed by: cddbd v1.5.1PL0 Copyright (c) Steve Scherf et al.
# Submitted via: CDex 1.51
#
DISCID=420b6306
DTITLE=The Trio - Conflagration
DYEAR=1971
DGENRE=Jazz
TTITLE0=Conflagration
TTITLE1=Malachite
TTITLE2=Nuts
TTITLE3=6's and 7's
TTITLE4=B
TTITLE5=Afore the Morrow
EXTD=YEAR: 1971
EXTT0=
EXTT1=
EXTT2=
EXTT3=
EXTT4=
EXTT5=
PLAYORDER=
